<svg width="72" height="73" viewBox="0 0 72 73" fill="none" xmlns="http://www.w3.org/2000/svg">
<path d="M0 36.353C0 16.4708 16.1178 0.353027 36 0.353027C55.8823 0.353027 72 16.4708 72 36.353C72 56.2353 55.8823 72.353 36 72.353C16.1178 72.353 0 56.2353 0 36.353Z" fill="#D28E7A"/>
<path d="M21.7143 40C21.7143 40.3156 21.9702 40.5714 22.2857 40.5714H49.7143C50.0299 40.5714 50.2857 40.3156 50.2857 40V22.2857H21.7143V40Z" fill="#FFF6F4"/>
<path d="M51.4286 20H20.5714C20.2559 20 20 20.2559 20 20.5714C20 20.887 20.2559 21.1429 20.5714 21.1429H51.4286C51.7441 21.1429 52 20.887 52 20.5714C52 20.2559 51.7441 20 51.4286 20Z" fill="#FFF6F4"/>
<path d="M40.5714 49.7143H36.5714V42.8572H37.1429C37.4584 42.8572 37.7143 42.6013 37.7143 42.2857V41.7143H34.2857V42.2857C34.2857 42.6013 34.5416 42.8572 34.8572 42.8572H35.4286V49.7143H31.4286C30.4819 49.7143 29.7143 50.4819 29.7143 51.4286V52H42.2857V51.4286C42.2857 50.4819 41.5181 49.7143 40.5714 49.7143Z" fill="#FFF6F4"/>
</svg>
