<svg width="134" height="52" viewBox="0 0 134 52" fill="none" xmlns="http://www.w3.org/2000/svg">
<path d="M14.7452 0.277172C10.5441 1.09027 6.80388 2.9333 3.90382 5.64364C1.22058 8.16425 0.16355 10.1428 0.0280333 13.0429C-0.0532769 14.8046 0.0280333 15.4009 0.461687 16.1326C1.05796 17.2439 2.35892 17.9757 4.09354 18.2196L5.3674 18.4093L4.98795 17.3523C4.17485 15.0756 4.79823 10.8204 6.26181 8.35398C7.31884 6.61936 9.08056 4.99316 10.8965 4.07164C11.8451 3.58378 12.1974 3.50247 12.2788 3.7464C12.3601 3.93613 12.5227 11.6064 12.7124 20.7673C12.875 29.9283 13.0648 37.7069 13.1461 38.0322C13.2545 38.6284 13.3358 38.6555 16.8592 38.6555H20.4911L27.5651 19.6019C31.4679 9.13997 34.6661 0.493999 34.6661 0.358482C34.6661 0.250069 33.9072 0.168758 32.9586 0.168758H31.2782L26.0202 15.5364C23.1201 24.0197 20.6808 31.0395 20.5724 31.1479C20.464 31.2563 20.3014 24.3721 20.1929 15.8345C20.0845 7.29695 19.9219 0.250069 19.8677 0.195862C19.5696 -0.102276 16.4798 -0.048069 14.7452 0.277172Z" fill="#D28E7A"/>
<path d="M66.3771 2.9604C64.3714 3.23144 62.691 3.50247 62.6368 3.55668C62.5826 3.61088 61.2546 9.60073 59.7097 16.8915C58.1648 24.1552 56.6741 30.5787 56.4302 31.1479C55.7255 32.7741 54.3974 33.7769 52.9609 33.7769C51.4973 33.7769 50.9282 33.262 50.9282 31.9339C50.9282 31.3918 51.7955 26.9198 52.8254 21.987C53.8824 17.0813 54.7226 13.0429 54.7226 12.9887C54.7226 12.9344 53.0964 12.9073 51.0908 12.9073C47.8384 12.9073 47.4318 12.9615 47.2963 13.3681C47.215 13.6391 46.4019 17.3794 45.5075 21.7159C44.586 26.0254 43.5832 30.1451 43.285 30.8769C42.9869 31.5816 42.3093 32.5302 41.7943 32.9638C40.141 34.4274 38.1896 33.8311 38.1896 31.8526C38.1896 31.446 39.0569 27.0824 40.0868 22.1496C41.1439 17.2439 41.9841 13.1242 41.9841 13.0429C41.9841 12.9615 40.3307 12.9073 38.3251 12.9073C34.7746 12.9073 34.6661 12.9344 34.5306 13.5036C32.8231 20.957 30.8717 31.175 30.8717 32.7199C30.8717 36.7041 32.7147 38.764 36.2923 38.764C38.7859 38.7369 40.5205 37.9238 42.3906 35.891L43.8542 34.2648L44.1794 35.4031C45.4804 39.6855 51.1179 40.0107 55.4815 36.0807L56.8096 34.8882L57.3246 35.9723C58.5171 38.6555 62.3387 39.7126 64.9948 38.0864C65.4827 37.7882 65.9163 37.5714 65.9705 37.6256C65.9976 37.6798 65.4014 40.7425 64.6154 44.4828C63.8023 48.1959 63.1789 51.2857 63.206 51.3128C63.2873 51.367 70.7136 49.5782 70.822 49.4698C70.8762 49.4156 72.1501 43.507 73.6679 36.3518C76.9474 20.8215 77.1371 20.1439 78.5465 18.5719C79.4951 17.4878 79.7119 17.3794 80.8232 17.3794C83.127 17.3794 84.1027 19.0598 84.0756 22.9627C84.0485 26.5132 83.8859 26.9469 82.3952 27.5974C80.4166 28.4918 77.625 30.389 76.8932 31.3647C75.4567 33.262 75.2128 36.0265 76.324 37.5172C77.3811 38.9537 80.1727 39.2247 82.3139 38.1406C84.5634 37.0022 87.2467 33.2891 88.6019 29.5217C89.171 27.9497 89.2794 27.8142 90.201 27.6516C90.743 27.5703 91.3664 27.4347 91.6103 27.3805C91.9627 27.2721 92.0169 27.6787 92.0169 30.3077C91.9898 33.1807 92.044 33.4788 92.8029 34.9966C93.8599 37.1107 95.4048 38.1948 98.0609 38.6826C101.801 39.3331 106.382 37.8966 109.336 35.105L110.8 33.7227L111.26 34.834C111.829 36.2976 113.727 37.9509 115.353 38.4116C118.307 39.2789 122.4 38.6284 124.812 36.9209C125.544 36.406 127.116 35.3218 128.308 34.5087C129.501 33.6685 131.263 32.232 132.238 31.2834L134 29.5759L133.024 29.4946C132.238 29.4404 131.723 29.6301 130.477 30.4974C129.609 31.1208 128.796 31.6087 128.661 31.6087C128.552 31.6087 128.444 30.8498 128.444 29.9012C128.444 28.9796 128.254 25.8899 128.064 23.0711C127.848 20.2253 127.576 16.4037 127.468 14.5606L127.305 11.2269L126.303 11.3896C125.761 11.4709 124.161 11.6877 122.752 11.8503C121.343 12.04 120.042 12.3111 119.879 12.4737C119.689 12.6363 119.283 13.612 118.958 14.6691C117.115 20.3608 114.025 26.8656 112.534 28.1665C112.019 28.6273 111.342 29.5217 111.071 30.1722C110.718 30.9853 110.095 31.6629 108.929 32.5302C106.842 34.0751 105.758 34.4274 103.292 34.4545C101.395 34.4545 101.259 34.4274 100.527 33.5872C99.6871 32.6657 99.2264 30.4703 99.5516 28.9796C99.7142 28.275 99.8769 28.1665 101.395 27.8955C105.243 27.1637 108.929 24.5076 110.474 21.3907C111.125 20.0355 111.233 19.4935 111.233 17.4607C111.233 15.5093 111.125 14.9943 110.664 14.3438C108.956 12.0129 104.024 11.7419 100.175 13.8018C97.9796 14.9672 95.8656 17.3523 94.4291 20.3608C93.7786 21.6888 93.1823 23.1795 93.0739 23.6674C92.9113 24.4534 92.7758 24.5618 91.4206 24.8328C90.5804 25.0225 89.8757 25.1039 89.8486 25.0497C89.7944 25.0225 89.8486 24.0468 89.9841 22.9356C90.4449 18.8159 89.2794 14.913 87.2196 13.5307C85.2139 12.2027 82.1512 12.4466 79.6306 14.127C78.8988 14.642 78.3026 14.8859 78.3026 14.7233C78.3297 14.3709 78.7633 12.2569 79.0073 11.4709C79.1428 11.0372 78.8988 11.0101 75.4025 11.0643L71.6622 11.1456L69.4398 21.5804C68.2201 27.3263 67.1631 32.4218 67.0547 32.8825C66.9192 33.6414 66.7836 33.7769 66.1603 33.7769C65.1574 33.7769 64.2901 33.1265 64.1004 32.2049C64.0191 31.7713 65.1574 25.7543 67.0276 16.9728C68.7351 9.00446 70.1174 2.47254 70.0903 2.47254C70.0631 2.44544 68.3827 2.66227 66.3771 2.9604ZM107.249 15.8887C108.062 17.4607 106.978 20.9841 104.972 23.2066C103.942 24.345 101.611 25.6459 100.609 25.6459C99.8769 25.6459 99.904 25.4562 100.988 22.1225C102.777 16.6747 105.975 13.4765 107.249 15.8887ZM120.611 24.3992C121.153 30.4974 121.072 31.7442 120.177 33.1265C119.662 33.9125 117.819 34.834 116.762 34.8611C114.973 34.8611 113.537 33.6956 113.537 32.1778C113.537 31.7171 113.672 31.6629 114.486 31.7984C115.272 31.9339 115.543 31.8255 116.247 31.1208C117.223 30.1451 117.304 29.0338 116.518 28.0039L115.976 27.3263L117.44 24.2637C118.226 22.5561 119.093 20.5234 119.391 19.7645C119.662 18.9785 119.933 18.3822 119.988 18.4364C120.042 18.5177 120.313 21.201 120.611 24.3992ZM82.0699 32.1507C81.5008 33.5059 80.2269 34.8611 79.5222 34.8611C79.3325 34.8611 79.0344 34.6713 78.8446 34.4545C78.5736 34.1293 78.6278 33.8853 79.0344 33.1807C79.5493 32.2591 82.4494 30.118 82.5849 30.5245C82.6391 30.66 82.3952 31.3647 82.0699 32.1507Z" fill="#D28E7A"/>
</svg>
