<svg width="483" height="575" viewBox="0 0 483 575" fill="none" xmlns="http://www.w3.org/2000/svg">
<path d="M481.73 1L435.8 130.28C403.82 112.27 371.83 94.25 339.85 76.23L340.42 74.58L481.73 1Z" fill="#854140"/>
<path d="M435.8 130.28L435.88 210.05L259.69 402.95L259.7 402.98C247.08 408.09 234.47 413.2 221.85 418.3C221.82 418.27 221.81 418.24 221.79 418.2C293.13 322.23 364.46 226.26 435.8 130.28Z" fill="#D28E7A"/>
<path d="M435.8 130.28C364.46 226.26 293.13 322.23 221.79 418.2C221.77 418.18 221.76 418.16 221.75 418.13L273.89 267.16L273.88 267.12C292.03 260.94 310.19 254.77 328.35 248.59C330.17 241.06 331.98 233.54 333.8 226.01C332.76 219.52 331.72 213.03 330.68 206.55C320.27 202.11 309.85 197.66 299.44 193.21L339.85 76.23C371.83 94.25 403.82 112.27 435.8 130.28Z" fill="#854140"/>
<path d="M434.55 332.22C435.43 340.16 435.88 348.22 435.88 356.4C435.88 397.98 424.21 436.83 403.96 469.86L221.93 418.46C221.9 418.41 221.87 418.36 221.85 418.3C234.47 413.2 247.08 408.09 259.7 402.98C317.98 379.4 376.27 355.81 434.55 332.22Z" fill="#854140"/>
<path d="M221.93 418.46L403.96 469.86C379.81 509.28 343.44 540.4 300.13 557.97C274.06 511.47 248 464.97 221.93 418.46Z" fill="#854140"/>
<path d="M330.68 206.55C331.72 213.03 332.76 219.52 333.8 226.01H158.62L151.99 130.28C201.15 151.26 250.29 172.24 299.44 193.21C309.85 197.66 320.27 202.11 330.68 206.55Z" fill="#854140"/>
<path d="M333.8 226.01C331.98 233.54 330.17 241.06 328.35 248.59C310.19 254.77 292.03 260.94 273.88 267.12C235.59 280.15 197.3 293.18 159.01 306.2L124.36 430.39L107.46 543.42C60.39 515.43 24.79 470.18 9.38 416.38L94.52 265.85L158.62 226.01H333.8Z" fill="#D28E7A"/>
<path d="M221.93 418.46C248 464.97 274.06 511.47 300.13 557.97C274.91 568.2 247.33 573.84 218.44 573.84C177.9 573.84 139.95 562.74 107.46 543.42C107.46 543.42 220.9 421.82 221.66 418.38L221.93 418.46Z" fill="#854140"/>
<path d="M159.01 306.2C179.92 343.51 200.84 380.82 221.75 418.13L221.66 418.38C220.9 421.82 107.46 543.42 107.46 543.42L124.36 430.39L159.01 306.2Z" fill="#854140"/>
<path d="M151.99 130.28L158.62 226.01L94.52 265.85L16 257.88C16.35 256.97 16.72 256.06 17.09 255.15L17.11 255.11L24.95 238.08C45.9 197.34 79.34 164.07 120.21 143.35C127.41 139.69 134.85 136.42 142.49 133.58C145.62 132.4 148.79 131.31 151.99 130.28Z" fill="#854140"/>
<path d="M142.49 74.58V133.58C134.85 136.42 127.41 139.69 120.21 143.35L114.28 122.94L142.49 74.58Z" fill="#854140"/>
<path d="M114.28 122.94L120.21 143.35C79.34 164.07 45.9 197.34 24.95 238.08L100.22 74.58L114.28 122.94Z" fill="#854140"/>
<path d="M1.22 347.32C1.07 344.03 1 340.71 1 337.39C1 309.33 6.31 282.51 16 257.88L94.52 265.85L9.38 416.38C3.92 397.33 1 377.21 1 356.4C1 353.36 1.06001 350.33 1.18001 347.32H1.22V347.32Z" fill="#854140"/>
<path d="M17.09 255.15C16.72 256.06 16.35 256.97 16 257.88C6.31 282.51 1 309.33 1 337.39C1 340.71 1.07 344.03 1.22 347.32C1.24 347.68 1.25 348.03 1.27 348.38" stroke="#D28E7A" stroke-miterlimit="10" stroke-linejoin="round"/>
<path d="M151.99 130.28C148.79 131.31 145.62 132.4 142.49 133.58C134.85 136.42 127.41 139.69 120.21 143.35C79.34 164.07 45.9 197.34 24.95 238.08C22.1 243.62 19.48 249.3 17.11 255.11" stroke="#D28E7A" stroke-miterlimit="10" stroke-linejoin="round"/>
<path d="M120.21 143.35L114.28 122.94L100.22 74.58L24.95 238.08L17.11 255.11L17.09 255.15" stroke="#D28E7A" stroke-miterlimit="10" stroke-linejoin="round"/>
<path d="M142.49 133.58V74.58L114.28 122.94" stroke="#D28E7A" stroke-miterlimit="10" stroke-linejoin="round"/>
<path d="M300.13 557.97C274.06 511.47 248 464.97 221.93 418.46C221.9 418.41 221.87 418.36 221.85 418.3C221.82 418.27 221.81 418.24 221.79 418.2C221.77 418.18 221.76 418.16 221.75 418.13C200.84 380.82 179.92 343.51 159.01 306.2C197.3 293.18 235.59 280.15 273.88 267.12C292.03 260.94 310.19 254.77 328.35 248.59C330.17 241.06 331.98 233.54 333.8 226.01C332.76 219.52 331.72 213.03 330.68 206.55C320.27 202.11 309.85 197.66 299.44 193.21C250.29 172.24 201.15 151.26 151.99 130.28L158.62 226.01" stroke="#D28E7A" stroke-miterlimit="10" stroke-linejoin="round"/>
<path d="M221.66 418.38C220.9 421.82 107.46 543.42 107.46 543.42L124.36 430.39L159.01 306.2" stroke="#D28E7A" stroke-miterlimit="10" stroke-linejoin="round"/>
<path d="M221.66 418.38C221.72 418.35 221.79 418.33 221.85 418.3C234.47 413.2 247.08 408.09 259.7 402.98C317.98 379.4 376.27 355.81 434.55 332.22C435.43 340.16 435.88 348.22 435.88 356.4C435.88 397.98 424.21 436.83 403.96 469.86C379.81 509.28 343.44 540.4 300.13 557.97C274.91 568.2 247.33 573.84 218.44 573.84C177.9 573.84 139.95 562.74 107.46 543.42C60.39 515.43 24.79 470.18 9.38 416.38C3.92 397.33 1 377.21 1 356.4C1 353.36 1.06001 350.33 1.18001 347.32" stroke="#D28E7A" stroke-miterlimit="10" stroke-linejoin="round"/>
<path d="M333.8 226.01H158.62L94.52 265.85L9.38 416.38" stroke="#D28E7A" stroke-miterlimit="10" stroke-linejoin="round"/>
<path d="M94.52 265.85L16 257.88" stroke="#D28E7A" stroke-miterlimit="10" stroke-linejoin="round"/>
<path d="M299.44 193.21L339.85 76.23L340.42 74.58L481.73 1L435.8 130.28L435.88 210.05L259.69 402.95" stroke="#D28E7A" stroke-miterlimit="10" stroke-linejoin="round"/>
<path d="M403.97 469.86H403.96L221.93 418.46L221.66 418.38L221.75 418.13L273.89 267.16" stroke="#D28E7A" stroke-miterlimit="10" stroke-linejoin="round"/>
<path d="M339.47 76.02C339.6 76.09 339.72 76.16 339.85 76.23C371.83 94.25 403.82 112.27 435.8 130.28C364.46 226.26 293.13 322.23 221.79 418.2C221.75 418.26 221.7 418.32 221.66 418.38" stroke="#D28E7A" stroke-miterlimit="10" stroke-linejoin="round"/>
</svg>
