<svg width="430" height="258" viewBox="0 0 430 258" fill="none" xmlns="http://www.w3.org/2000/svg">
<path d="M198.327 101.021C195.487 102.101 193.287 103.781 191.727 106.061C190.167 108.301 189.387 111.061 189.387 114.341C189.387 115.821 189.527 116.861 189.807 117.461C190.087 118.021 190.227 118.341 190.227 118.421C188.067 118.421 186.447 117.981 185.367 117.101C184.327 116.181 183.807 114.681 183.807 112.601C183.807 110.041 184.847 107.561 186.927 105.161C189.047 102.721 191.747 100.761 195.027 99.2807C198.307 97.7607 201.587 97.0007 204.867 97.0007C205.427 97.0007 206.227 97.0407 207.267 97.1207L207.807 134.021L220.407 97.3007H224.607L207.927 142.001H199.287L198.327 101.021ZM226.301 142.361C224.381 142.361 222.821 141.761 221.621 140.561C220.461 139.361 219.881 137.561 219.881 135.161C219.881 134.161 220.041 132.861 220.361 131.261L224.441 112.001H233.081L228.761 132.401C228.641 133.001 228.581 133.561 228.581 134.081C228.581 135.721 229.181 136.541 230.381 136.541C231.501 136.541 232.461 136.081 233.261 135.161C234.061 134.201 234.701 132.901 235.181 131.261L239.261 112.001H247.901L243.581 132.401C243.421 133.001 243.341 133.641 243.341 134.321C243.341 135.121 243.521 135.701 243.881 136.061C244.281 136.381 244.921 136.541 245.801 136.541C246.921 136.541 247.881 136.061 248.681 135.101C249.521 134.141 250.181 132.861 250.661 131.261H253.181C251.701 135.581 249.861 138.521 247.661 140.081C245.501 141.601 243.321 142.361 241.121 142.361C239.401 142.361 238.021 141.881 236.981 140.921C235.981 139.961 235.381 138.541 235.181 136.661C233.821 138.861 232.381 140.361 230.861 141.161C229.381 141.961 227.861 142.361 226.301 142.361ZM256.594 142.361C254.674 142.361 253.114 141.761 251.914 140.561C250.754 139.361 250.174 137.561 250.174 135.161C250.174 134.161 250.334 132.861 250.654 131.261L257.074 101.201L265.954 100.001L259.054 132.401C258.894 133.001 258.814 133.641 258.814 134.321C258.814 135.121 258.994 135.701 259.354 136.061C259.754 136.381 260.394 136.541 261.274 136.541C262.434 136.541 263.514 136.061 264.514 135.101C265.514 134.101 266.234 132.821 266.674 131.261H269.194C267.714 135.581 265.814 138.521 263.494 140.081C261.174 141.601 258.874 142.361 256.594 142.361ZM271.21 109.781H279.85L278.89 114.281C280.89 112.561 283.23 111.701 285.91 111.701C288.15 111.701 289.93 112.441 291.25 113.921C292.57 115.401 293.23 117.821 293.23 121.181C293.23 124.341 292.77 127.541 291.85 130.781C290.93 133.981 289.37 136.721 287.17 139.001C284.97 141.241 282.07 142.361 278.47 142.361C275.91 142.361 274.21 141.641 273.37 140.201L270.25 154.841L261.19 157.001L271.21 109.781ZM276.61 137.141C278.53 137.141 280.11 136.241 281.35 134.441C282.63 132.641 283.55 130.501 284.11 128.021C284.71 125.501 285.01 123.161 285.01 121.001C285.01 117.681 284.01 116.021 282.01 116.021C281.29 116.021 280.55 116.281 279.79 116.801C279.07 117.321 278.43 118.041 277.87 118.961L274.33 135.761C274.65 136.681 275.41 137.141 276.61 137.141ZM303.296 142.361C300.336 142.361 298.036 141.601 296.396 140.081C294.756 138.521 293.936 136.101 293.936 132.821C293.936 130.061 294.476 127.021 295.556 123.701C296.636 120.381 298.396 117.521 300.836 115.121C303.276 112.681 306.376 111.461 310.136 111.461C314.536 111.461 316.736 113.381 316.736 117.221C316.736 119.461 316.096 121.521 314.816 123.401C313.536 125.281 311.836 126.801 309.716 127.961C307.596 129.081 305.336 129.721 302.936 129.881C302.856 131.081 302.816 131.881 302.816 132.281C302.816 134.241 303.156 135.581 303.836 136.301C304.516 136.981 305.616 137.321 307.136 137.321C309.296 137.321 311.136 136.821 312.656 135.821C314.216 134.821 315.916 133.301 317.756 131.261H319.796C315.356 138.661 309.856 142.361 303.296 142.361ZM303.416 127.001C304.896 126.921 306.296 126.401 307.616 125.441C308.976 124.481 310.056 123.261 310.856 121.781C311.696 120.301 312.116 118.741 312.116 117.101C312.116 115.461 311.616 114.641 310.616 114.641C309.176 114.641 307.756 115.901 306.356 118.421C304.996 120.941 304.016 123.801 303.416 127.001ZM324.583 142.361C322.663 142.361 321.043 142.001 319.723 141.281C318.403 140.521 317.423 139.561 316.783 138.401C316.143 137.201 315.823 135.961 315.823 134.681C315.823 133.361 316.143 132.221 316.783 131.261C317.383 130.261 318.123 129.541 319.003 129.101C320.563 126.301 321.923 123.481 323.083 120.641C324.243 117.761 325.343 114.661 326.383 111.341L335.263 110.141C335.463 115.261 335.803 120.801 336.283 126.761C336.483 129.161 336.583 130.901 336.583 131.981C336.583 134.421 335.963 136.421 334.723 137.981C333.483 139.541 331.943 140.661 330.103 141.341C328.303 142.021 326.463 142.361 324.583 142.361ZM322.663 137.621C324.143 137.621 325.383 137.181 326.383 136.301C327.383 135.421 327.883 134.001 327.883 132.041C327.883 130.841 327.763 129.161 327.523 127.001C327.123 122.441 326.863 119.381 326.743 117.821C325.783 120.981 324.163 124.761 321.883 129.161C322.803 129.641 323.263 130.341 323.263 131.261C323.263 132.021 323.003 132.701 322.483 133.301C322.003 133.901 321.383 134.201 320.623 134.201C319.783 134.201 319.243 133.941 319.003 133.421C319.003 134.861 319.283 135.921 319.843 136.601C320.443 137.281 321.383 137.621 322.663 137.621Z" fill="#D28E7A"/>
<path d="M200.039 158C199.909 158 199.844 157.826 199.844 157.477V150.656C199.844 150.312 199.909 150.141 200.039 150.141H200.914C201.039 150.141 201.102 150.312 201.102 150.656V157.477C201.102 157.826 201.039 158 200.914 158H200.039ZM200.008 148.93C199.878 148.93 199.812 148.789 199.812 148.508V147.5C199.812 147.224 199.878 147.086 200.008 147.086H200.938C201.068 147.086 201.133 147.224 201.133 147.5V148.508C201.133 148.789 201.068 148.93 200.938 148.93H200.008ZM204.516 158.086C203.146 158.086 202.461 156.755 202.461 154.094C202.461 151.396 203.128 150.047 204.461 150.047C205.039 150.047 205.466 150.411 205.742 151.141C205.779 151.193 205.799 151.219 205.805 151.219C205.826 151.219 205.836 151.185 205.836 151.117V147.312C205.836 147 205.901 146.844 206.031 146.844H207C207.13 146.844 207.195 147 207.195 147.312V157.477C207.195 157.826 207.133 158 207.008 158H206.781C206.667 158 206.578 157.844 206.516 157.531C206.375 156.729 206.292 156.323 206.266 156.312C206.25 156.328 206.232 156.359 206.211 156.406C206.07 157.052 205.857 157.495 205.57 157.734C205.284 157.969 204.932 158.086 204.516 158.086ZM205.828 154.008C205.828 153.023 205.74 152.294 205.562 151.82C205.385 151.346 205.138 151.109 204.82 151.109C204.664 151.109 204.529 151.151 204.414 151.234C204.305 151.312 204.203 151.453 204.109 151.656C204.016 151.859 203.945 152.159 203.898 152.555C203.852 152.945 203.828 153.43 203.828 154.008C203.828 154.815 203.87 155.445 203.953 155.898C204.036 156.352 204.146 156.654 204.281 156.805C204.417 156.951 204.594 157.023 204.812 157.023C205.49 157.023 205.828 156.018 205.828 154.008ZM209.055 158C208.924 158 208.859 157.826 208.859 157.477V150.656C208.859 150.312 208.924 150.141 209.055 150.141H209.93C210.055 150.141 210.117 150.312 210.117 150.656V157.477C210.117 157.826 210.055 158 209.93 158H209.055ZM209.023 148.93C208.893 148.93 208.828 148.789 208.828 148.508V147.5C208.828 147.224 208.893 147.086 209.023 147.086H209.953C210.083 147.086 210.148 147.224 210.148 147.5V148.508C210.148 148.789 210.083 148.93 209.953 148.93H209.023ZM213.445 156.922C213.56 156.99 213.701 157.023 213.867 157.023C214.034 157.023 214.172 156.99 214.281 156.922C214.391 156.849 214.492 156.714 214.586 156.516C214.68 156.312 214.75 156.008 214.797 155.602C214.844 155.19 214.867 154.672 214.867 154.047C214.867 153.438 214.844 152.932 214.797 152.531C214.75 152.13 214.677 151.831 214.578 151.633C214.484 151.43 214.383 151.292 214.273 151.219C214.164 151.146 214.029 151.109 213.867 151.109C213.706 151.109 213.568 151.146 213.453 151.219C213.344 151.292 213.24 151.43 213.141 151.633C213.047 151.831 212.977 152.13 212.93 152.531C212.883 152.927 212.859 153.432 212.859 154.047C212.859 154.672 212.88 155.188 212.922 155.594C212.969 156 213.039 156.305 213.133 156.508C213.232 156.711 213.336 156.849 213.445 156.922ZM214.32 158.062C214.19 158.078 214.039 158.086 213.867 158.086C213.695 158.086 213.542 158.078 213.406 158.062C213.276 158.047 213.125 158.008 212.953 157.945C212.781 157.883 212.63 157.797 212.5 157.688C212.375 157.578 212.245 157.422 212.109 157.219C211.974 157.016 211.865 156.776 211.781 156.5C211.698 156.224 211.628 155.878 211.57 155.461C211.518 155.039 211.492 154.568 211.492 154.047C211.492 153.526 211.518 153.06 211.57 152.648C211.628 152.232 211.701 151.885 211.789 151.609C211.878 151.333 211.99 151.096 212.125 150.898C212.26 150.695 212.391 150.542 212.516 150.438C212.646 150.328 212.797 150.245 212.969 150.188C213.146 150.125 213.297 150.086 213.422 150.07C213.552 150.055 213.701 150.047 213.867 150.047C214.034 150.047 214.18 150.055 214.305 150.07C214.435 150.086 214.586 150.125 214.758 150.188C214.93 150.245 215.078 150.328 215.203 150.438C215.333 150.542 215.466 150.695 215.602 150.898C215.737 151.096 215.846 151.333 215.93 151.609C216.018 151.885 216.089 152.232 216.141 152.648C216.198 153.06 216.227 153.526 216.227 154.047C216.227 154.568 216.198 155.039 216.141 155.461C216.089 155.878 216.021 156.224 215.938 156.5C215.854 156.776 215.745 157.016 215.609 157.219C215.479 157.422 215.349 157.578 215.219 157.688C215.094 157.797 214.945 157.883 214.773 157.945C214.602 158.008 214.451 158.047 214.32 158.062ZM217.867 158C217.81 158 217.763 157.953 217.727 157.859C217.69 157.76 217.672 157.63 217.672 157.469V150.711C217.672 150.544 217.688 150.409 217.719 150.305C217.755 150.195 217.802 150.141 217.859 150.141H218.133C218.263 150.141 218.357 150.297 218.414 150.609L218.555 151.664C218.57 151.727 218.591 151.758 218.617 151.758C218.633 151.758 218.648 151.724 218.664 151.656C218.93 150.583 219.427 150.047 220.156 150.047C220.823 150.047 221.286 150.542 221.547 151.531C221.562 151.573 221.578 151.594 221.594 151.594C221.625 151.594 221.643 151.573 221.648 151.531C221.779 151.042 221.982 150.672 222.258 150.422C222.539 150.172 222.826 150.047 223.117 150.047C223.32 150.047 223.497 150.07 223.648 150.117C223.799 150.164 223.948 150.258 224.094 150.398C224.245 150.534 224.367 150.719 224.461 150.953C224.555 151.188 224.63 151.503 224.688 151.898C224.745 152.294 224.773 152.76 224.773 153.297V157.469C224.773 157.823 224.708 158 224.578 158H223.672C223.542 158 223.477 157.823 223.477 157.469V153.156C223.477 152.365 223.424 151.826 223.32 151.539C223.216 151.253 223.042 151.109 222.797 151.109C222.531 151.109 222.31 151.294 222.133 151.664C221.961 152.029 221.875 152.609 221.875 153.406V157.469C221.875 157.63 221.857 157.76 221.82 157.859C221.784 157.953 221.737 158 221.68 158H220.781C220.646 158 220.578 157.823 220.578 157.469V153.258C220.578 152.44 220.523 151.878 220.414 151.57C220.305 151.263 220.133 151.109 219.898 151.109C219.69 151.109 219.513 151.221 219.367 151.445C219.227 151.664 219.125 151.948 219.062 152.297C219.005 152.641 218.977 153.039 218.977 153.492V157.469C218.977 157.63 218.958 157.76 218.922 157.859C218.885 157.953 218.839 158 218.781 158H217.867ZM227.719 158.094C227.203 158.094 226.802 157.927 226.516 157.594C226.234 157.26 226.094 156.776 226.094 156.141C226.094 155.667 226.164 155.253 226.305 154.898C226.451 154.544 226.63 154.276 226.844 154.094C227.062 153.911 227.302 153.76 227.562 153.641C227.823 153.521 228.065 153.443 228.289 153.406C228.513 153.37 228.708 153.336 228.875 153.305C229.047 153.268 229.146 153.232 229.172 153.195V152.781C229.172 152.224 229.109 151.807 228.984 151.531C228.865 151.25 228.643 151.109 228.32 151.109C228.049 151.109 227.841 151.195 227.695 151.367C227.555 151.534 227.435 151.792 227.336 152.141C227.289 152.286 227.227 152.354 227.148 152.344C226.602 152.208 226.326 152.12 226.32 152.078C226.289 152.062 226.271 152.003 226.266 151.898C226.266 151.794 226.279 151.698 226.305 151.609C226.44 151.099 226.672 150.714 227 150.453C227.328 150.188 227.797 150.055 228.406 150.055C228.734 150.055 229.018 150.109 229.258 150.219C229.503 150.323 229.716 150.497 229.898 150.742C230.081 150.987 230.216 151.32 230.305 151.742C230.398 152.159 230.445 152.669 230.445 153.273V157.609C230.445 157.875 230.391 158.008 230.281 158.008H230.031C229.938 158.008 229.854 157.893 229.781 157.664C229.771 157.612 229.719 157.443 229.625 157.156C229.536 156.87 229.487 156.698 229.477 156.641C229.471 156.625 229.464 156.615 229.453 156.609C229.448 156.604 229.44 156.604 229.43 156.609C229.419 156.615 229.414 156.625 229.414 156.641C229.273 157.12 229.07 157.482 228.805 157.727C228.544 157.971 228.182 158.094 227.719 158.094ZM227.992 157.094C228.357 157.094 228.648 156.854 228.867 156.375C229.091 155.896 229.203 155.323 229.203 154.656C229.203 154.26 229.18 154.062 229.133 154.062C229.039 154.062 228.961 154.078 228.898 154.109C228.336 154.25 227.922 154.479 227.656 154.797C227.396 155.115 227.266 155.529 227.266 156.039C227.266 156.742 227.508 157.094 227.992 157.094ZM233.398 158.086C233.039 158.086 232.688 158 232.344 157.828C232.005 157.656 231.708 157.417 231.453 157.109L231.914 156.211C232.388 156.753 232.867 157.023 233.352 157.023C233.648 157.023 233.872 156.922 234.023 156.719C234.18 156.51 234.258 156.258 234.258 155.961C234.258 155.674 234.177 155.44 234.016 155.258C233.859 155.07 233.576 154.833 233.164 154.547C232.919 154.375 232.721 154.227 232.57 154.102C232.424 153.971 232.281 153.812 232.141 153.625C232 153.438 231.896 153.227 231.828 152.992C231.766 152.753 231.734 152.477 231.734 152.164C231.734 151.555 231.904 151.049 232.242 150.648C232.581 150.247 233.023 150.047 233.57 150.047C234.232 150.047 234.799 150.31 235.273 150.836L234.789 151.766C234.419 151.359 234.047 151.156 233.672 151.156C233.427 151.156 233.237 151.245 233.102 151.422C232.966 151.594 232.898 151.81 232.898 152.07C232.898 152.362 232.979 152.609 233.141 152.812C233.302 153.01 233.547 153.214 233.875 153.422C234.109 153.573 234.307 153.719 234.469 153.859C234.635 154 234.794 154.172 234.945 154.375C235.102 154.573 235.219 154.805 235.297 155.07C235.375 155.336 235.414 155.635 235.414 155.969C235.414 156.625 235.237 157.143 234.883 157.523C234.534 157.898 234.039 158.086 233.398 158.086Z" fill="#D28E7A"/>
<path d="M180.715 53.0697L168.718 86.8687C160.364 82.1601 152.008 77.449 143.655 72.7378L143.804 72.3064L180.715 53.0697Z" fill="#854140"/>
<path d="M168.718 86.8687L168.739 107.724L122.717 158.155L122.719 158.163C119.423 159.499 116.129 160.835 112.833 162.169C112.825 162.161 112.822 162.153 112.817 162.142C131.452 137.052 150.083 111.962 168.718 86.8687Z" fill="#D28E7A"/>
<path d="M168.718 86.8686C150.083 111.962 131.452 137.052 112.817 162.142C112.812 162.137 112.809 162.132 112.807 162.124L126.426 122.655L126.423 122.644C131.164 121.028 135.908 119.415 140.651 117.8C141.127 115.831 141.599 113.865 142.075 111.896C141.803 110.2 141.532 108.503 141.26 106.809C138.541 105.648 135.819 104.484 133.1 103.321L143.655 72.7378C152.008 77.4489 160.364 82.1601 168.718 86.8686Z" fill="#854140"/>
<path d="M168.391 139.664C168.621 141.74 168.739 143.847 168.739 145.985C168.739 156.856 165.69 167.013 160.401 175.648L112.854 162.21C112.846 162.197 112.838 162.184 112.833 162.169C116.129 160.835 119.423 159.499 122.719 158.163C137.943 151.999 153.168 145.831 168.391 139.664Z" fill="#854140"/>
<path d="M112.854 162.21L160.401 175.648C154.093 185.954 144.593 194.09 133.28 198.684C126.47 186.527 119.663 174.37 112.854 162.21Z" fill="#854140"/>
<path d="M141.26 106.809C141.531 108.503 141.803 110.2 142.075 111.896H96.3169L94.5851 86.8687C107.426 92.3537 120.262 97.8387 133.1 103.321C135.819 104.484 138.541 105.648 141.26 106.809Z" fill="#854140"/>
<path d="M142.075 111.896C141.599 113.865 141.127 115.831 140.651 117.8C135.908 119.415 131.164 121.028 126.423 122.644C116.422 126.051 106.42 129.457 96.4187 132.861L87.368 165.329L82.9536 194.88C70.6587 187.562 61.3598 175.732 57.3346 161.667L79.5736 122.312L96.3169 111.896H142.075Z" fill="#D28E7A"/>
<path d="M112.854 162.21C119.663 174.37 126.47 186.527 133.28 198.684C126.692 201.358 119.488 202.833 111.942 202.833C101.353 202.833 91.4402 199.931 82.9536 194.88C82.9536 194.88 112.585 163.089 112.783 162.189L112.854 162.21Z" fill="#854140"/>
<path d="M96.4187 132.861C101.881 142.616 107.345 152.37 112.807 162.124L112.783 162.19C112.585 163.089 82.9536 194.88 82.9536 194.88L87.368 165.329L96.4187 132.861Z" fill="#854140"/>
<path d="M94.5851 86.8687L96.3169 111.896L79.5736 122.312L59.0638 120.228C59.1552 119.99 59.2519 119.753 59.3485 119.515L59.3537 119.504L61.4016 115.052C66.8738 104.401 75.6085 95.7027 86.284 90.2857C88.1647 89.3288 90.108 88.4739 92.1036 87.7314C92.9212 87.4229 93.7492 87.1379 94.5851 86.8687Z" fill="#854140"/>
<path d="M92.1036 72.3064V87.7314C90.108 88.4738 88.1647 89.3287 86.284 90.2856L84.735 84.9496L92.1036 72.3064Z" fill="#854140"/>
<path d="M84.735 84.9496L86.284 90.2856C75.6085 95.7026 66.8738 104.401 61.4016 115.052L81.0625 72.3064L84.735 84.9496Z" fill="#854140"/>
<path d="M55.2032 143.612C55.164 142.751 55.1457 141.883 55.1457 141.015C55.1457 133.679 56.5327 126.668 59.0638 120.228L79.5736 122.312L57.3346 161.667C55.9084 156.686 55.1457 151.426 55.1457 145.985C55.1457 145.191 55.1614 144.399 55.1927 143.612H55.2032V143.612Z" fill="#854140"/>
<path d="M59.3485 119.515C59.2518 119.753 59.1552 119.99 59.0638 120.228C56.5327 126.668 55.1457 133.679 55.1457 141.015C55.1457 141.883 55.164 142.751 55.2032 143.612C55.2084 143.706 55.211 143.797 55.2162 143.889" stroke="#D28E7A" stroke-miterlimit="10" stroke-linejoin="round"/>
<path d="M94.5851 86.8687C93.7492 87.1379 92.9212 87.4229 92.1036 87.7314C90.108 88.4739 88.1646 89.3288 86.284 90.2857C75.6085 95.7027 66.8738 104.401 61.4016 115.052C60.6571 116.5 59.9728 117.985 59.3537 119.504" stroke="#D28E7A" stroke-miterlimit="10" stroke-linejoin="round"/>
<path d="M86.284 90.2856L84.735 84.9496L81.0625 72.3064L61.4016 115.052L59.3537 119.504L59.3485 119.515" stroke="#D28E7A" stroke-miterlimit="10" stroke-linejoin="round"/>
<path d="M92.1036 87.7313V72.3064L84.735 84.9496" stroke="#D28E7A" stroke-miterlimit="10" stroke-linejoin="round"/>
<path d="M133.28 198.684C126.47 186.527 119.663 174.37 112.854 162.21C112.846 162.197 112.838 162.184 112.833 162.169C112.825 162.161 112.822 162.153 112.817 162.142C112.812 162.137 112.809 162.132 112.807 162.124C107.345 152.37 101.881 142.615 96.4187 132.861C106.42 129.457 116.422 126.051 126.423 122.644C131.164 121.028 135.908 119.415 140.651 117.8C141.127 115.831 141.599 113.865 142.075 111.896C141.803 110.2 141.531 108.503 141.26 106.809C138.541 105.648 135.819 104.484 133.1 103.321C120.262 97.8387 107.426 92.3537 94.5851 86.8687L96.3169 111.896" stroke="#D28E7A" stroke-miterlimit="10" stroke-linejoin="round"/>
<path d="M112.783 162.19C112.585 163.089 82.9536 194.88 82.9536 194.88L87.368 165.329L96.4187 132.861" stroke="#D28E7A" stroke-miterlimit="10" stroke-linejoin="round"/>
<path d="M112.783 162.189C112.799 162.182 112.817 162.176 112.833 162.169C116.129 160.835 119.423 159.499 122.719 158.163C137.943 151.999 153.168 145.831 168.391 139.664C168.621 141.74 168.739 143.847 168.739 145.985C168.739 156.856 165.69 167.013 160.401 175.648C154.093 185.954 144.593 194.09 133.28 198.684C126.692 201.358 119.488 202.833 111.942 202.833C101.353 202.833 91.4402 199.931 82.9536 194.88C70.6587 187.562 61.3598 175.732 57.3346 161.667C55.9084 156.686 55.1457 151.426 55.1457 145.985C55.1457 145.191 55.1614 144.399 55.1927 143.612" stroke="#D28E7A" stroke-miterlimit="10" stroke-linejoin="round"/>
<path d="M142.075 111.896H96.3169L79.5736 122.312L57.3346 161.667" stroke="#D28E7A" stroke-miterlimit="10" stroke-linejoin="round"/>
<path d="M79.5736 122.312L59.0638 120.228" stroke="#D28E7A" stroke-miterlimit="10" stroke-linejoin="round"/>
<path d="M133.1 103.321L143.655 72.7378L143.804 72.3064L180.715 53.0697L168.718 86.8687L168.739 107.724L122.717 158.155" stroke="#D28E7A" stroke-miterlimit="10" stroke-linejoin="round"/>
<path d="M160.404 175.648H160.401L112.854 162.21L112.783 162.189L112.807 162.124L126.426 122.655" stroke="#D28E7A" stroke-miterlimit="10" stroke-linejoin="round"/>
<path d="M143.556 72.683C143.59 72.7013 143.621 72.7196 143.655 72.7379C152.008 77.449 160.364 82.1602 168.718 86.8687C150.083 111.962 131.452 137.052 112.817 162.142C112.807 162.158 112.794 162.174 112.783 162.19" stroke="#D28E7A" stroke-miterlimit="10" stroke-linejoin="round"/>
</svg>
