<svg width="72" height="73" viewBox="0 0 72 73" fill="none" xmlns="http://www.w3.org/2000/svg">
<path d="M0 36.353C0 16.4708 16.1178 0.353027 36 0.353027C55.8823 0.353027 72 16.4708 72 36.353C72 56.2353 55.8823 72.353 36 72.353C16.1178 72.353 0 56.2353 0 36.353Z" fill="#D28E7A"/>
<g clip-path="url(#clip0_9_110)">
<path d="M33.5949 32.4945C33.6325 32.4649 33.6717 32.4383 33.7107 32.4103C33.8098 32.3389 33.9132 32.2744 34.0208 32.2171C34.0631 32.194 34.104 32.171 34.1474 32.1506C35.1516 31.6629 36.3508 31.8273 37.1868 32.567C37.231 32.6054 37.267 32.6491 37.3087 32.6897C37.3927 32.7707 37.4717 32.8566 37.5453 32.9471C37.587 32.9993 37.6218 33.0556 37.6578 33.1107C37.7176 33.1975 37.7728 33.2875 37.8225 33.3805C37.8546 33.4412 37.8826 33.5029 37.91 33.5661C37.9512 33.6602 37.9869 33.7568 38.0173 33.8548C38.0377 33.9207 38.0569 33.9855 38.0736 34.0521C38.0967 34.1545 38.114 34.2577 38.1255 34.362C38.1332 34.4271 38.1428 34.4913 38.1461 34.5569C38.1502 34.6713 38.1472 34.7858 38.1373 34.9C38.1332 34.956 38.1337 35.0122 38.1266 35.0685C38.1038 35.2326 38.0659 35.3946 38.0141 35.5518C38.0141 35.5603 38.0113 35.5683 38.0086 35.5765L39.5179 36.448L42.3284 31.5756L26.7541 22.5819L23.9435 27.4537L33.2419 32.8212C33.3498 32.7023 33.4681 32.5931 33.5949 32.4945Z" fill="#FFF6F4"/>
<path d="M21.1544 27.7883L25.6512 20L26.6242 20.5618L22.1273 28.3501L21.1544 27.7883Z" fill="#FFF6F4"/>
<path d="M46.4882 37.8722L47.0506 36.8981L50.9447 39.1465L50.3824 40.1206L46.4882 37.8722Z" fill="#FFF6F4"/>
<path d="M41.0584 36.0341L42.7447 33.114L46.6389 35.3627L44.9525 38.2828L41.0584 36.0341Z" fill="#FFF6F4"/>
<path d="M36.67 35.9646C36.6442 35.9171 36.6115 35.8738 36.5728 35.8359C36.6615 35.7439 36.7391 35.6418 36.8039 35.5318C37.268 34.7249 36.9938 33.6948 36.1899 33.2254C36.0744 33.1607 35.9514 33.1099 35.8241 33.0737C35.7865 33.0624 35.7478 33.0555 35.7118 33.047C35.6193 33.027 35.5252 33.0146 35.4308 33.01C35.3901 33.01 35.3503 33.005 35.3097 33.0061C35.1755 33.0092 35.0421 33.0281 34.9123 33.0624C34.3395 33.2131 33.8885 33.6553 33.7269 34.2253C33.5652 34.7954 33.7167 35.4083 34.1254 35.8375C34.087 35.8749 34.0546 35.9177 34.0288 35.9646L26.412 51.1863C26.2734 51.4643 26.3862 51.8019 26.664 51.9408C26.9418 52.0794 27.2796 51.9669 27.4182 51.6888L34.7847 36.9505V51.4377C34.7847 51.7481 35.0363 51.9998 35.3468 51.9998C35.6572 51.9998 35.9089 51.7481 35.9089 51.4377V36.9549L43.2725 51.6888C43.4114 51.9669 43.749 52.0794 44.0271 51.9408C44.3048 51.8019 44.4176 51.4643 44.2787 51.1863L36.67 35.9646Z" fill="#FFF6F4"/>
</g>
<defs>
<clipPath id="clip0_9_110">
<rect width="32" height="32" fill="white" transform="translate(20 20)"/>
</clipPath>
</defs>
</svg>
